<svg
  width="48"
  height="48"
  viewBox="0 0 48 48"
  fill="none"
  xmlns="http://www.w3.org/2000/svg"
>
  <path
    d="M19.0002 4C19.6568 4 20.307 4.12933 20.9136 4.38061C21.5202 4.63188 22.0714 5.00018 22.5357 5.46447C23 5.92876 23.3683 6.47996 23.6196 7.08659C23.8708 7.69321 24.0002 8.34339 24.0002 9V39C23.9975 40.2477 23.5284 41.4494 22.685 42.3689C21.8416 43.2884 20.6848 43.8594 19.442 43.9697C18.1991 44.0799 16.96 43.7215 15.9679 42.9648C14.9758 42.2081 14.3025 41.1078 14.0802 39.88C13.2424 40.0665 12.3707 40.0342 11.549 39.7862C10.7274 39.5382 9.98335 39.0829 9.38862 38.4641C8.7939 37.8452 8.36849 37.0837 8.15333 36.2529C7.93818 35.422 7.94053 34.5497 8.16016 33.72C7.00986 33.3505 5.99789 32.6423 5.25673 31.6882C4.51556 30.734 4.07971 29.5784 4.00623 28.3724C3.93275 27.1664 4.22505 25.9664 4.84489 24.9293C5.46473 23.8922 6.38323 23.0664 7.48016 22.56C6.82796 21.9157 6.36547 21.1045 6.14324 20.215C5.92101 19.3256 5.94761 18.3921 6.22013 17.5168C6.49264 16.6414 7.00058 15.8579 7.68841 15.2517C8.37625 14.6456 9.21749 14.2403 10.1202 14.08C9.97454 13.4252 9.96215 12.7479 10.0837 12.0882C10.2053 11.4286 10.4584 10.8001 10.8279 10.2403C11.1973 9.68046 11.6757 9.2007 12.2344 8.82957C12.7932 8.45844 13.4209 8.20352 14.0802 8.08C14.295 6.93254 14.9045 5.8964 15.8031 5.15121C16.7017 4.40602 17.8328 3.99875 19.0002 4Z"
    stroke-width="2"
    stroke-linecap="round"
    stroke-linejoin="round"
    stroke="#f8fafc"
  />
  <path
    d="M29 4C27.6739 4 26.4021 4.52679 25.4645 5.46447C24.5268 6.40215 24 7.67392 24 9V39C24.0027 40.2477 24.4718 41.4494 25.3152 42.3689C26.1586 43.2884 27.3153 43.8594 28.5582 43.9697C29.801 44.0799 31.0402 43.7215 32.0323 42.9648C33.0244 42.2081 33.6977 41.1078 33.92 39.88C34.7578 40.0665 35.6295 40.0342 36.4511 39.7862C37.2728 39.5382 38.0168 39.0829 38.6115 38.4641C39.2063 37.8452 39.6317 37.0837 39.8468 36.2529C40.062 35.422 40.0596 34.5497 39.84 33.72C40.9903 33.3505 42.0023 32.6423 42.7434 31.6882C43.4846 30.734 43.9205 29.5784 43.9939 28.3724C44.0674 27.1664 43.7751 25.9664 43.1553 24.9293C42.5354 23.8922 41.6169 23.0664 40.52 22.56C41.1722 21.9157 41.6347 21.1045 41.8569 20.215C42.0791 19.3256 42.0526 18.3921 41.78 17.5168C41.5075 16.6414 40.9996 15.8579 40.3117 15.2517C39.6239 14.6456 38.7827 14.2403 37.88 14.08C38.0256 13.4252 38.038 12.7479 37.9164 12.0882C37.7949 11.4286 37.5418 10.8001 37.1723 10.2403C36.8028 9.68046 36.3245 9.2007 35.7657 8.82957C35.207 8.45844 34.5793 8.20352 33.92 8.08C33.7052 6.93254 33.0957 5.8964 32.197 5.15121C31.2984 4.40602 30.1674 3.99875 29 4Z"
    stroke-width="2"
    stroke-linecap="round"
    stroke-linejoin="round"
    stroke="#f8fafc"
  />
  <path
    d="M25 14L15 26H24L23 34L33 22H24L25 14Z"
    stroke-width="2"
    stroke-linecap="round"
    stroke-linejoin="round"
    stroke="#f8fafc"
  />
</svg>